<svg width="335" height="371" viewBox="0 0 335 371" fill="none" xmlns="http://www.w3.org/2000/svg">
<path d="M308.348 98.7211L309.133 98.1414C307.562 94.9531 305.207 92.0547 302.852 90.6055L176.441 10.0289C174.348 8.57969 171.469 8 168.328 8C165.187 8 162.309 8.86953 160.215 10.0289L34.5898 90.8953C30.1406 93.7937 27 101.04 27 106.547V267.99C27 271.178 27.5234 274.656 29.3555 277.845L28.832 278.134C30.1406 280.453 31.9727 282.482 33.8047 283.641L159.953 364.508C162.047 365.957 164.926 366.537 168.066 366.537C171.207 366.537 174.086 365.667 176.18 364.508L301.805 283.641C306.254 280.743 309.395 273.497 309.395 267.99V106.257C309.656 103.938 309.395 101.33 308.348 98.7211ZM215.438 192.92V181.327H228.523V166.834H241.609V181.327H254.695V192.92H241.609V207.413H228.523V192.92H215.438ZM224.074 152.342C213.082 130.604 192.145 116.112 168.328 116.112C132.996 116.112 104.207 147.995 104.207 187.123C104.207 226.252 132.996 258.135 168.328 258.135C192.145 258.135 213.082 243.643 224.074 222.195L257.836 244.223C240.039 278.424 206.539 301.612 168.328 301.612C111.273 301.612 64.9492 250.309 64.9492 187.123C64.9492 123.937 111.273 72.6352 168.328 72.6352C206.801 72.6352 240.301 96.1125 258.098 130.604L224.074 152.342ZM301.805 192.92H288.719V207.413H278.25V192.92H262.547V181.327H278.25V166.834H288.719V181.327H301.805V192.92Z" fill="#C6C5C5"/>
</svg>
