<svg width="335" height="369" viewBox="0 0 335 369" fill="none" xmlns="http://www.w3.org/2000/svg">
<path d="M307.52 96.5743L308.305 95.9977C306.734 92.8267 304.379 89.9438 302.023 88.5024L175.613 8.36025C173.52 6.91885 170.641 6.34229 167.5 6.34229C164.359 6.34229 161.48 7.20713 159.387 8.36025L33.7617 88.7907C29.3125 91.6735 26.1719 98.8806 26.1719 104.358V264.931C26.1719 268.102 26.6953 271.561 28.5273 274.732L28.0039 275.02C29.3125 277.327 31.1445 279.345 32.9766 280.498L159.125 360.928C161.219 362.37 164.098 362.946 167.238 362.946C170.379 362.946 173.258 362.081 175.352 360.928L300.977 280.498C305.426 277.615 308.566 270.408 308.566 264.931V104.07C308.828 101.763 308.566 99.1688 307.52 96.5743ZM167.5 255.129C191.316 255.129 212.254 240.715 223.246 219.382L257.008 241.292C239.211 275.309 205.711 298.371 167.5 298.371C110.445 298.371 64.1211 247.345 64.1211 184.5C64.1211 121.655 110.445 70.629 167.5 70.629C205.973 70.629 239.473 93.9798 257.27 128.285L223.246 149.906C212.254 128.285 191.316 113.871 167.5 113.871C132.168 113.871 103.379 145.582 103.379 184.5C103.379 223.418 132.168 255.129 167.5 255.129Z" fill="#C6C5C5"/>
</svg>
