<svg width="283" height="359" viewBox="0 0 283 359" fill="none" xmlns="http://www.w3.org/2000/svg">
<path d="M281.52 91.0976L282.305 90.5179C280.734 87.3296 278.379 84.4312 276.023 82.9819L149.613 2.40537C147.52 0.956152 144.641 0.376465 141.5 0.376465C138.359 0.376465 135.48 1.246 133.387 2.40537L7.76172 83.2718C3.3125 86.1702 0.171875 93.4163 0.171875 98.9233V260.366C0.171875 263.555 0.695312 267.033 2.52734 270.221L2.00391 270.511C3.3125 272.83 5.14453 274.859 6.97656 276.018L133.125 356.884C135.219 358.333 138.098 358.913 141.238 358.913C144.379 358.913 147.258 358.044 149.352 356.884L274.977 276.018C279.426 273.119 282.566 265.873 282.566 260.366V98.6335C282.828 96.3147 282.566 93.7062 281.52 91.0976ZM188.609 185.297V173.703H201.695V159.211H214.781V173.703H227.867V185.297H214.781V199.789H201.695V185.297H188.609ZM197.246 144.719C186.254 122.98 165.316 108.488 141.5 108.488C106.168 108.488 77.3789 140.371 77.3789 179.5C77.3789 218.629 106.168 250.512 141.5 250.512C165.316 250.512 186.254 236.019 197.246 214.571L231.008 236.599C213.211 270.801 179.711 293.988 141.5 293.988C84.4453 293.988 38.1211 242.686 38.1211 179.5C38.1211 116.314 84.4453 65.0116 141.5 65.0116C179.973 65.0116 213.473 88.489 231.27 122.98L197.246 144.719ZM274.977 185.297H261.891V199.789H251.422V185.297H235.719V173.703H251.422V159.211H261.891V173.703H274.977V185.297Z" fill="#C6C5C5"/>
</svg>
