<svg width="378" height="292" viewBox="0 0 378 292" fill="none" xmlns="http://www.w3.org/2000/svg">
<path d="M377.01 283.76C363.33 288.4 354.87 283.96 347.28 268.76C330.24 234.72 311.43 202.24 293.28 169.16C290.94 164.88 288.51 160.68 285.48 155.36C264 194 242.55 230.8 222.42 269.08C215.22 282.76 207.66 288.72 194.22 283.88L274.98 139.36L199.8 8.84002C212.73 5.48002 221.67 7.20002 229.59 22.64C247.08 56.72 266.37 89.16 285.6 123.48C304.95 89.28 324 56.8 342 23.04C349.23 9.36002 357 4.16002 369.99 9.20002C360.15 26.6 350.52 43.72 340.83 60.72C327.75 83.64 314.91 106.84 301.35 129.28C296.52 137.28 297.3 142.48 301.62 150.04C326.7 194 351.48 238.4 377.01 283.76ZM0.989903 136.96C3.1499 122.52 4.5899 107.8 7.5899 93.64C25.5899 7.92002 99.3899 -27.72 150.09 25.4C179.79 56.56 187.17 100.48 185.7 150H18.2999C15.7799 238.84 63.7499 292.48 124.89 265.12C146.34 255.52 158.97 233.12 165.3 205.12C168.51 191.08 173.82 188.88 183.72 192.88C178.65 227.92 167.16 257.2 143.16 275.52C107.16 302.96 55.7699 294.08 28.7399 255.96C12.7799 233.56 5.9999 205.68 2.9999 175.56C2.5499 170.76 1.6199 166.04 0.899902 161.28C0.959902 153.173 0.989903 145.067 0.989903 136.96ZM18.5999 131H169.89C168.9 66.76 138.9 21.12 97.8899 20.72C52.8899 20.24 20.5499 64.8 18.5999 131Z" fill="#C6C5C5"/>
</svg>
