<svg width="384" height="512" viewBox="0 0 384 512" fill="none" xmlns="http://www.w3.org/2000/svg">
<g clip-path="url(#clip0_402_2)">
<path d="M274.784 332.9C284.584 326.2 298.184 320.4 298.184 320.4C298.184 320.4 259.484 327.4 220.984 330.6C173.884 334.5 123.284 335.3 97.8843 331.9C37.7843 323.9 130.884 301.8 130.884 301.8C130.884 301.8 94.7844 299.4 50.2844 320.8C-2.21565 346.2 180.284 357.8 274.784 332.9ZM189.384 300.8C170.384 258.1 106.284 220.6 189.384 155C293.044 73.2 239.884 20 239.884 20C261.384 104.5 164.284 130.1 129.184 182.6C105.284 218.5 140.884 257 189.384 300.8ZM303.984 124.6C304.084 124.6 128.784 168.4 212.484 264.8C237.184 293.2 205.984 318.8 205.984 318.8C205.984 318.8 268.684 286.4 239.884 245.9C212.984 208.1 192.384 189.3 303.984 124.6ZM297.884 395.1C297.338 396.053 296.665 396.927 295.884 397.7C424.184 364 376.984 278.8 315.684 300.4C312.374 301.617 309.513 303.814 307.484 306.7C311.064 305.404 314.743 304.401 318.484 303.7C349.484 297.2 393.984 345.2 297.884 395.1ZM345.044 457.4C345.044 457.4 359.544 469.3 329.144 478.6C271.244 496.1 88.3443 501.4 37.5443 479.3C19.2444 471.4 53.5444 460.3 64.3444 458C75.5444 455.6 82.0443 456 82.0443 456C61.7444 441.7 -49.2557 484.1 25.6444 496.2C229.884 529.4 398.044 481.3 345.044 457.4ZM121.484 416C42.7844 438 169.384 483.4 269.584 440.5C259.812 436.703 250.378 432.087 241.384 426.7C196.684 435.2 175.984 435.8 135.384 431.2C101.884 427.4 121.484 416 121.484 416ZM301.284 513.2C222.584 528 125.484 526.3 67.9844 516.8C67.9844 516.7 79.7844 526.5 140.384 530.4C232.584 536.3 374.184 527.1 377.484 483.5C377.484 483.5 371.084 500 301.284 513.2ZM257.684 373C198.484 384.4 164.184 384.1 120.884 379.6C87.3843 376.1 109.284 359.9 109.284 359.9C22.4843 388.7 157.484 421.3 278.784 385.8C270.945 383.032 263.761 378.674 257.684 373Z" fill="#C6C5C5"/>
</g>
<defs>
<clipPath id="clip0_402_2">
<rect width="384" height="512" fill="white"/>
</clipPath>
</defs>
</svg>
