<svg width="192" height="488" viewBox="0 0 192 488" fill="none" xmlns="http://www.w3.org/2000/svg">
<path fill-rule="evenodd" clip-rule="evenodd" d="M180.133 159.248C185.751 177.82 189.797 196.78 191.127 216.432C192.779 240.812 192.023 265.02 187.525 289C187.403 289.66 187.144 290.28 186.951 290.92C185.541 290.924 184.102 290.724 182.723 290.968C171.072 293.06 159.431 295.228 147.79 297.384C135.757 299.612 123.706 301.752 111.694 304.132C107.438 304.972 102.171 303.968 100.452 310.696C100.403 310.88 99.9132 310.912 99.6297 311.016L100.211 270.812L99.6191 173.804L105.226 172.704C114.396 170.988 123.566 169.248 132.743 167.58C143.695 165.592 154.657 163.66 165.615 161.72C170.449 160.86 175.289 160.072 180.133 159.248Z" fill="#999999"/>
<path fill-rule="evenodd" clip-rule="evenodd" d="M88.0517 428.216C82.1367 422.404 76.0152 416.848 70.3452 410.736C39.8357 377.848 17.5197 339.14 6.52968 292.472C3.50218 279.628 1.48268 266.576 0.83518 253.304C0.38018 244.016 -0.277831 234.644 0.296169 225.404C1.82567 200.828 4.93368 176.488 11.2407 152.816L11.5872 152.264C12.1997 153.196 13.0817 154.02 13.3932 155.072C19.5497 175.792 25.6607 196.528 31.7402 217.276C50.8432 282.476 69.9217 347.692 89.0562 412.876C89.4307 414.148 90.4002 415.192 91.0967 416.34L88.0517 428.216Z" fill="#B7B6B6"/>
<path fill-rule="evenodd" clip-rule="evenodd" d="M180.133 159.248C175.289 160.072 170.445 160.86 165.612 161.712C154.653 163.652 143.691 165.584 132.74 167.572C123.563 169.24 114.393 170.98 105.223 172.696L99.6155 173.796L99.5735 169.616C99.388 166.18 99.0695 162.748 99.0345 159.312C98.793 137.4 98.6425 115.488 98.4045 93.576C98.2575 79.86 98.037 66.148 97.792 52.436C97.6415 43.916 97.4805 35.392 97.1445 26.884C96.9625 22.312 96.3185 17.764 96.056 13.192C95.909 10.564 96.112 7.916 96.1575 5.276C99.017 11.608 101.814 17.988 104.754 24.272C109.398 34.208 116.797 41.528 123.458 49.516C149.788 81.084 168.482 117.788 180.133 159.248Z" fill="#9D9D9D"/>
<path fill-rule="evenodd" clip-rule="evenodd" d="M99.626 311.012C99.9095 310.908 100.403 310.876 100.449 310.692C102.167 303.964 107.435 304.968 111.691 304.128C123.703 301.752 135.753 299.608 147.786 297.38C159.427 295.224 171.068 293.056 182.72 290.964C184.099 290.716 185.537 290.92 186.948 290.916C184.771 299.796 183.056 308.868 180.294 317.504C177.158 327.3 173.364 336.86 169.336 346.232C163.305 360.211 155.84 373.32 147.1 385.284C140.384 394.516 132.897 403.048 125.393 411.476C121.246 416.136 116.356 419.932 111.806 424.12L110.627 423.2L106.378 419.048L101.982 408.036C98.9788 395.19 97.3407 381.978 97.1025 368.684L97.183 366.44L97.7815 356.736C97.981 353.424 98.247 350.116 98.3695 346.796C98.821 334.868 99.213 322.94 99.626 311.012Z" fill="#949494"/>
<path fill-rule="evenodd" clip-rule="evenodd" d="M99.6261 311.012C99.2131 322.94 98.8211 334.868 98.3766 346.8C98.2541 350.12 97.9881 353.428 97.7886 356.74L95.1111 357.896C89.1646 337.888 83.2146 318.092 77.3941 298.244C67.7691 265.408 58.2596 232.52 48.6486 199.676C40.8859 173.166 33.0692 146.676 25.1986 120.208C24.8311 118.968 23.7741 118 23.0391 116.904L40.1751 80.896C40.7631 82.064 41.5401 83.156 41.9111 84.412C49.8475 111.22 57.7435 138.044 65.5991 164.884C75.8051 199.804 85.9481 234.752 96.1471 269.676C96.5531 271.072 97.225 272.36 97.8655 273.924L100.211 270.804L99.6261 311.012Z" fill="#BDBCBC"/>
<path fill-rule="evenodd" clip-rule="evenodd" d="M23.0423 116.908C23.7773 118.004 24.8308 118.972 25.2018 120.212C33.0725 146.68 40.8892 173.17 48.6518 199.68C58.2628 232.524 67.7723 265.412 77.3973 298.248C83.2143 318.092 89.1643 337.892 95.1143 357.9L97.7918 356.744L97.1933 366.448L96.6508 368.684C95.7198 379.308 94.9358 389.956 93.8018 400.556C93.2313 405.868 92.0203 411.084 91.0998 416.344C90.4068 415.196 89.4338 414.152 89.0593 412.88C69.9248 347.692 50.8463 282.48 31.7433 217.28C25.6659 196.531 19.5503 175.796 13.3963 155.076C13.0848 154.024 12.2063 153.2 11.5903 152.268L23.0423 116.908Z" fill="#BAB9B9"/>
<path fill-rule="evenodd" clip-rule="evenodd" d="M100.207 270.808L97.8619 273.928C97.2214 272.364 96.5494 271.072 96.1434 269.68C85.9479 234.756 75.8014 199.808 65.5954 164.888C57.7398 138.049 49.8438 111.224 41.9074 84.416C41.5399 83.16 40.7629 82.064 40.1714 80.9L61.3639 49.04C62.0324 50.06 62.9844 50.968 63.3309 52.116C69.2144 71.8 75.0454 91.508 80.8414 111.228C86.2559 129.644 91.5899 148.088 97.0674 166.48C97.4349 167.712 98.7124 168.584 99.5664 169.624L99.6084 173.804C99.8114 206.132 100.011 238.472 100.207 270.808Z" fill="#C2C1C1"/>
<path fill-rule="evenodd" clip-rule="evenodd" d="M99.5736 169.616C98.7196 168.576 97.4421 167.704 97.0746 166.472C91.5971 148.08 86.2631 129.636 80.8486 111.22C75.0526 91.5 69.2216 71.796 63.3381 52.108C62.9916 50.96 62.0396 50.052 61.3711 49.032C68.2626 41.32 74.9406 33.332 82.1086 25.976C88.4821 19.44 93.6061 12.432 93.8406 2.10397C93.8511 1.67597 94.0471 1.24797 94.3481 0.0479736L96.1646 5.27197C96.1191 7.91597 95.9126 10.56 96.0631 13.188C96.3256 17.76 96.9696 22.308 97.1516 26.88C97.4876 35.388 97.6486 43.912 97.7991 52.432C98.0406 66.144 98.2611 79.856 98.4116 93.572C98.6461 115.484 98.8001 137.396 99.0416 159.308C99.0696 162.752 99.3846 166.18 99.5736 169.616Z" fill="#C6C5C5"/>
<path fill-rule="evenodd" clip-rule="evenodd" d="M91.0928 416.34C92.0133 411.08 93.2243 405.86 93.7948 400.552C94.9323 389.956 95.7128 379.304 96.6438 368.68L96.8748 368.64L97.1059 368.684C97.344 381.978 98.9821 395.19 101.985 408.036C101.369 408.964 100.497 409.792 100.172 410.84C97.6274 419.04 95.2298 427.304 92.6713 435.504C92.3213 436.624 91.3483 437.496 90.6623 438.48L88.0479 428.216L91.0928 416.34Z" fill="#545454"/>
<path fill-rule="evenodd" clip-rule="evenodd" d="M90.666 438.484C91.352 437.5 92.3285 436.628 92.675 435.508C95.2335 427.308 97.6345 419.048 100.176 410.844C100.501 409.796 101.369 408.968 101.989 408.04L106.381 419.056C105.513 420.464 104.316 421.732 103.833 423.3L95.419 451.536C95.0725 452.668 93.8895 453.468 93.0985 454.424L90.666 438.484Z" fill="#585858"/>
<path fill-rule="evenodd" clip-rule="evenodd" d="M93.0986 454.42C93.8931 453.468 95.0726 452.664 95.4191 451.532L103.833 423.296C104.313 421.732 105.513 420.46 106.381 419.052L110.634 423.2C108.579 425.52 107.438 428.2 108.124 431.588L106.833 436.42C106.245 437.248 105.394 437.968 105.104 438.916C102.167 448.528 99.3636 458.192 96.4061 467.804C96.0316 469.024 94.9921 469.98 94.2571 471.052C93.8756 465.504 93.4871 459.968 93.0986 454.42Z" fill="#5C5C5C"/>
<path fill-rule="evenodd" clip-rule="evenodd" d="M94.2607 471.052C94.9922 469.976 96.0317 469.02 96.4097 467.804C99.3672 458.196 102.171 448.532 105.107 438.916C105.398 437.972 106.245 437.248 106.836 436.42L105.055 458.6C104.579 459.228 103.889 459.776 103.662 460.508C101.649 466.964 99.7522 473.468 97.7327 479.924C97.3162 481.256 96.5182 482.432 95.8952 483.676C95.3422 482.848 94.3517 482.048 94.3062 481.184C94.1277 477.82 94.2502 474.432 94.2607 471.052Z" fill="#5F5F5F"/>
<path fill-rule="evenodd" clip-rule="evenodd" d="M95.8916 483.676C96.5146 482.428 97.3126 481.252 97.7291 479.924C99.7521 473.472 101.646 466.968 103.658 460.508C103.886 459.776 104.579 459.232 105.051 458.6L105.093 473.16L100.83 485.656L95.8916 483.676Z" fill="#5C5C5C"/>
<path fill-rule="evenodd" clip-rule="evenodd" d="M100.83 485.66L105.093 473.164L105.972 487.948L100.83 485.66Z" fill="#626262"/>
<path fill-rule="evenodd" clip-rule="evenodd" d="M108.124 431.592C107.438 428.204 108.575 425.52 110.633 423.204L111.813 424.124L108.124 431.592Z" fill="#CECDB7"/>
<path fill-rule="evenodd" clip-rule="evenodd" d="M97.1061 368.688L96.875 368.644L96.644 368.684L97.1865 366.448L97.1061 368.688Z" fill="#4FAA41"/>
</svg>
