<svg width="447" height="339" viewBox="0 0 447 339" fill="none" xmlns="http://www.w3.org/2000/svg">
<path d="M306.227 34.3749C304.08 34.3749 302.624 34.666 301.112 35.061V35.3313H301.373C302.381 37.4936 304.099 39.0738 305.368 41.0074C306.376 43.2322 307.235 45.4569 308.243 47.6608L308.504 47.3489C310.259 45.9767 311.117 43.7727 311.117 40.4253C310.371 39.4481 310.259 38.4709 309.624 37.5144C308.877 36.1214 307.272 35.4353 306.264 34.3333L306.227 34.3749ZM107.707 308.7H90.4027C89.916 278.069 88.2344 247.477 85.3627 217.009H85.2133L58.8933 308.7H45.7333L19.6 217.009H19.4133C17.3692 247.525 16.1553 278.102 15.7733 308.7H0C1.02667 267.824 3.584 229.484 7.65333 193.722H29.12L54.04 278.22H54.1893L79.3333 193.722H99.7733C104.291 235.617 106.941 273.978 107.763 308.7H107.707ZM182.691 223.87C175.635 266.389 166.339 297.327 154.84 316.601C145.843 331.488 135.987 338.91 125.291 338.91C122.435 338.91 118.944 337.954 114.725 336.041V325.77C116.779 326.124 119.205 326.311 121.931 326.311C126.933 326.311 130.947 324.751 134.008 321.695C137.685 317.952 139.515 313.753 139.515 309.116C139.515 305.893 138.077 299.344 135.221 289.489L116.293 223.87H133.28L146.851 272.938C149.912 284.083 151.2 291.859 150.677 296.288C158.144 274.165 163.333 249.984 166.264 223.87H182.691ZM412.757 308.7H363.664V193.722H380.184V294.562H412.757V308.7ZM350.784 311.507L331.819 301.111C333.499 299.531 335.123 297.826 336.579 295.913C344.661 285.393 348.675 269.757 348.675 249.07C348.675 211.021 335.272 191.976 308.448 191.976C295.307 191.976 285.04 196.799 277.648 206.468C269.621 217.03 265.589 232.582 265.589 253.145C265.589 273.354 269.136 288.2 276.304 297.639C282.837 306.164 292.675 310.426 305.853 310.426C310.781 310.426 315.299 309.74 319.387 308.388L344.12 324.439L350.84 311.507H350.784ZM289.333 285.684C285.133 278.199 283.043 266.14 283.043 249.589C283.043 220.627 290.957 206.135 306.749 206.135C315.019 206.135 321.123 209.607 324.987 216.531C329.168 224.057 331.259 235.992 331.259 252.355C331.259 281.546 323.344 296.184 307.552 296.184C299.245 296.184 293.179 292.711 289.296 285.788L289.333 285.684ZM258.384 276.847C258.384 286.619 255.173 294.645 248.752 300.882C242.331 307.12 233.763 310.239 222.917 310.239C212.781 310.239 203.056 306.663 193.555 299.531L197.979 289.634C206.155 294.208 213.528 296.454 220.192 296.454C226.389 296.454 231.261 294.936 234.808 291.88C236.581 290.391 238.012 288.457 238.985 286.235C239.959 284.012 240.446 281.565 240.408 279.093C240.408 272.232 236.115 266.41 228.312 261.524C221.069 257.095 206.603 247.864 206.603 247.864C198.725 241.481 194.805 234.64 194.805 223.392C194.805 214.036 197.736 206.551 203.579 200.833C209.459 195.053 217.019 192.204 226.352 192.204C235.909 192.204 244.645 195.032 252.485 200.729L248.509 210.626C242.245 207.561 235.49 205.934 228.648 205.844C223.365 205.844 219.277 207.258 216.44 210.127C215 211.455 213.839 213.12 213.04 215.002C212.24 216.884 211.82 218.939 211.811 221.022C211.811 227.841 216.179 233.705 224.243 238.695C231.579 243.165 246.4 252.625 246.4 252.625C254.483 258.966 258.496 265.724 258.496 276.91L258.384 276.847ZM433.515 155.174C423.528 154.883 415.781 156.006 409.304 159.083C407.437 159.915 404.451 159.915 404.189 162.556C405.216 163.657 405.365 165.466 406.243 167.005C407.736 169.791 410.312 173.513 412.701 175.467C415.315 177.754 417.928 179.958 420.672 181.913C425.525 185.239 431.032 187.214 435.792 190.562C438.499 192.516 441.261 194.991 444.005 197.07C445.368 198.109 446.245 199.981 448 200.646V200.23C447.141 198.983 446.88 197.174 446.04 195.781C444.789 194.388 443.539 193.14 442.307 191.768C438.642 186.388 434.268 181.657 429.333 177.733C425.339 174.698 416.603 170.456 414.96 165.362L414.717 165.071C417.443 164.801 420.691 163.699 423.304 162.867C427.541 161.62 431.424 161.89 435.811 160.663C437.789 160.102 439.787 159.416 441.784 158.709V157.462C439.544 154.967 437.864 151.578 435.549 149.249C429.089 142.959 422.198 137.238 414.941 132.137C411.021 129.351 406.056 127.563 401.931 125.193C400.437 124.361 397.936 123.945 397.077 122.552C394.837 119.517 393.531 115.483 391.944 111.865C388.279 103.946 384.873 95.8801 381.733 87.6847C379.493 82.2373 378.131 76.8107 375.387 71.8207C362.507 48.1806 348.563 33.8551 327.115 19.8415C322.504 16.9307 316.979 15.6832 311.136 14.1446C308.019 13.9783 304.901 13.7288 301.803 13.5832C299.749 12.606 297.771 9.96548 296.016 8.69719C288.923 3.70719 270.555 -7.10448 265.328 7.20019C261.968 16.2238 270.312 25.1226 273.205 29.6968C275.352 32.8779 278.059 36.5164 279.552 40.0926C280.429 42.5044 280.672 44.9787 281.549 47.4944C283.528 53.6072 285.413 60.4269 288.027 66.1446C289.389 69.0554 290.883 72.1118 292.637 74.7315C293.645 76.2493 295.363 76.9562 295.755 79.4512C294 82.2789 293.888 86.3956 292.88 89.8471C288.4 105.586 290.155 125.047 296.501 136.628C298.499 140.08 303.259 147.731 309.624 144.799C315.224 142.304 313.992 134.404 315.597 127.438C315.971 125.775 315.728 124.673 316.493 123.55V123.862C318.248 127.771 320.003 131.493 321.608 135.402C325.453 142.221 332.173 149.29 337.792 154.01C340.779 156.505 343.149 160.83 346.883 162.368V161.953H346.603C345.8 160.747 344.736 160.164 343.728 159.187C341.361 156.607 339.177 153.826 337.195 150.871C331.935 142.866 327.272 134.397 323.251 125.546C321.197 121.18 319.48 116.481 317.837 112.177C317.091 110.514 317.091 108.019 315.84 107.187C313.973 110.223 311.229 112.863 309.867 116.606C307.496 122.594 307.253 129.954 306.357 137.606C305.853 137.751 306.096 137.606 305.853 137.897C301.859 136.815 300.496 132.2 299.003 128.332C295.269 118.456 294.653 102.592 297.883 91.2193C298.76 88.3085 302.493 79.1186 301 76.3325C300.216 73.6919 297.752 72.1742 296.389 70.0326C294.636 67.2453 293.136 64.2715 291.909 61.1546C288.923 53.3785 287.429 44.7707 284.181 36.9946C282.688 33.3977 280.075 29.6344 277.947 26.3285C275.576 22.586 272.963 19.9455 271.077 15.5169C270.461 13.9991 269.584 11.4833 270.573 9.81995C270.835 8.6972 271.357 8.26057 272.328 7.94869C273.971 6.45169 278.581 8.40611 280.205 9.23777C284.816 11.3169 288.699 13.2714 292.563 16.1822C294.317 17.5544 296.203 20.195 298.443 20.8811H301.056C305.051 21.8583 309.549 21.1722 313.283 22.3989C319.909 24.7692 325.883 28.2206 331.24 31.9631C347.748 43.7086 361.174 60.1057 370.16 79.4928C371.653 82.6947 372.307 85.6264 373.669 88.953C376.283 95.8143 379.512 102.738 382.163 109.37C384.776 115.92 387.296 122.594 391.048 128.021C392.915 130.931 400.419 132.449 403.779 133.967C406.261 135.214 410.125 136.358 412.365 137.876C416.659 140.787 420.84 144.113 424.872 147.315C426.925 148.895 433.141 152.368 433.515 155.174Z" fill="#C6C5C5"/>
</svg>
