<svg width="448" height="480" viewBox="0 0 448 480" fill="none" xmlns="http://www.w3.org/2000/svg">
<path d="M216.016 0C212.725 0 210.233 0.026 209.326 0.134C208.363 0.24 205.296 0.554 202.539 0.79C138.908 6.936 79.3072 43.716 41.5576 100.246C20.5371 131.68 7.09333 167.332 2.016 205.1C0.220267 218.28 0 222.174 0 240.048C0 257.922 0.224 261.816 2.016 275C14.1867 365.12 74.0525 440.838 155.245 468.89C169.785 473.912 185.112 477.336 202.541 479.4C209.328 480.2 238.668 480.2 245.455 479.4C275.541 475.834 301.03 467.86 326.165 454.114C330.019 452.002 330.764 451.44 330.239 450.968C329.889 450.69 313.464 427.092 293.759 398.568L257.938 346.728L213.05 275.562C188.352 236.434 168.032 204.442 167.856 204.442C167.681 204.39 167.507 236.016 167.418 274.622C167.293 342.226 167.244 344.946 166.454 346.542C165.316 348.842 164.438 349.778 162.602 350.81C161.202 351.558 159.973 351.7 153.362 351.7H145.783L143.771 350.34C142.523 349.502 141.509 348.319 140.836 346.916L139.916 344.804L140.015 250.744L140.14 156.636L141.495 154.806C142.197 153.82 143.687 152.556 144.736 151.946C146.531 151.006 147.233 150.912 154.808 150.912C163.744 150.912 165.232 151.286 167.552 154.006C168.211 154.76 192.515 193.98 221.592 241.222C251.033 289.039 280.491 336.843 309.967 384.634L345.438 442.198L347.23 440.932C363.13 429.86 379.943 414.096 393.256 397.678C421.59 362.82 439.854 320.318 445.984 274.998C447.778 261.816 447.996 257.918 447.996 240.048C447.996 222.174 447.772 218.28 445.984 205.096C433.81 114.976 373.946 39.258 292.755 11.206C278.434 6.232 263.194 2.806 246.116 0.742C242.962 0.39 225.887 0.008 216.016 0ZM291.962 144.34C298.445 144.34 299.581 144.446 301.028 145.28C303.132 146.404 304.836 148.564 305.452 150.814C305.799 152.034 305.889 178.12 305.799 236.902L305.674 321.252L291.794 298.452L277.866 275.652V214.332C277.866 174.692 278.04 152.406 278.303 151.328C279.003 148.702 280.536 146.636 282.639 145.418C284.433 144.43 285.085 144.34 291.962 144.34Z" fill="#C6C5C5"/>
</svg>
