<svg width="406" height="480" viewBox="0 0 406 480" fill="none" xmlns="http://www.w3.org/2000/svg">
<path d="M164.547 97.52L89.6896 57.034L7.5376 100.964L84.4181 142.33L164.547 97.52ZM198.858 116.074L277.342 158.52L195.914 202.332L118.914 160.896L198.858 116.074ZM303.677 57.648L384.304 100.964L312.194 139.768L233.55 97.264L303.677 57.648ZM268.975 38.99L196.392 0L124.585 38.386L199.379 78.802L268.975 38.99ZM212.227 373.876V480L300.16 432.986L300.061 326.816L212.227 373.876ZM300.029 289.762L299.932 184.706L212.227 231.418V336.51L300.029 289.762ZM405.595 270.072V376.612L330.596 416.716L330.542 310.66L405.595 270.072ZM405.595 232.82V128.428L330.456 168.448L330.519 273.714L405.595 232.82Z" fill="#C6C5C5"/>
<path d="M193 231V480.5L129.5 433L56 273.5V282.5V398.955L0 367.989V127L56 156L136.5 340.5V292V202.5L193 231Z" fill="#A9A8A8"/>
</svg>
