<svg width="448" height="450" viewBox="0 0 448 450" fill="none" xmlns="http://www.w3.org/2000/svg">
<path d="M439.8 169.5C432.1 138.6 417.5 115.3 386.4 115.3H346.3V162.7C346.3 199.5 315.1 230.5 279.5 230.5H172.7C143.5 230.5 119.3 255.5 119.3 284.8V386.6C119.3 415.6 144.5 432.6 172.7 440.9C206.5 450.8 239 452.6 279.5 440.9C306.4 433.1 332.9 417.4 332.9 386.6V345.9H226.2V332.3H386.4C417.5 332.3 429 310.6 439.8 278.1C451 244.6 450.5 212.4 439.8 169.5ZM286.2 373C297.3 373 306.3 382.1 306.3 393.3C306.3 404.6 297.3 413.7 286.2 413.7C275.2 413.7 266.1 404.5 266.1 393.3C266.2 382 275.2 373 286.2 373ZM167.8 217.1H274.6C304.3 217.1 328 192.6 328 162.8V60.9001C328 31.9001 303.6 10.2001 274.6 5.30007C238.8 -0.599929 199.9 -0.299927 167.8 5.40007C122.6 13.4001 114.4 30.1001 114.4 61.0001V101.7H221.3V115.3H74.2998C43.1998 115.3 15.9998 134 7.49977 169.5C-2.30023 210.2 -2.70023 235.6 7.49977 278.1C15.0998 309.7 33.1998 332.3 64.2998 332.3H101V283.5C101 248.2 131.5 217.1 167.8 217.1ZM161.1 74.5001C150 74.5001 141 65.4001 141 54.2001C141.1 42.9001 150 33.8001 161.1 33.8001C172.1 33.8001 181.2 43.0001 181.2 54.2001C181.2 65.4001 172.2 74.5001 161.1 74.5001Z" fill="#C6C5C5"/>
</svg>
